<?xml version="1.0" encoding="UTF-8" standalone="no"?>
<svg version="1.1" xmlns="http://www.w3.org/2000/svg" width="1024" height="1024" viewBox="0 0 1024 1024">
  <path
    fill="#000"
    d="m 621.4763,678.97516 249.50729,-432.11023 58.25363,98.74747 -67.24364,115.7274 133.54501,0.35095 28.46141,49.34262 -29.06344,50.46794 -190.08763,-0.60014 -68.31611,117.77481 z m -19.6048,-346.3485 -498.97208,-0.0245 56.391,-99.82286 133.84469,0.371 -66.46857,-115.82885 28.50125,-49.319623 58.23824,-0.06428 94.52408,164.920793 136.15403,0.27608 z M 712.08473,501.04073 462.61995,68.906058 577.26457,67.830596 643.86563,183.92904 710.94206,68.451007 l 56.96268,0.02246 29.17479,50.403803 -95.56356,164.32051 67.83793,118.05114 z M 402.52426,344.95841 153.01705,777.06858 94.763366,678.32116 162.00704,562.59373 28.46191,562.24285 1.9458378e-5,512.9005 29.063605,462.43249 219.15112,463.0327 287.46744,345.25776 Z m -90.04168,178.00082 249.46479,432.13476 -114.64463,1.07539 -66.60105,-116.0984 -67.07644,115.4779 -56.96267,-0.023 -29.17479,-50.40365 95.56355,-164.32065 -67.83792,-118.05089 z m 109.1828,167.42179 498.97199,0.0245 -56.39093,99.82288 -133.84474,-0.37101 66.4687,115.82891 -28.50079,49.3199 -58.23837,0.0642 -94.52395,-164.92072 -136.15426,-0.2762 z"
  />
</svg>
